<?xml version="1.0" encoding="utf-8"?>
<!-- Generator: Adobe Illustrator 24.1.1, SVG Export Plug-In . SVG Version: 6.00 Build 0)  -->
<svg version="1.1" id="Capa_1" xmlns="http://www.w3.org/2000/svg" xmlns:xlink="http://www.w3.org/1999/xlink" x="0px" y="0px"
	 viewBox="0 0 300 89" style="enable-background:new 0 0 300 89;" xml:space="preserve">
<style type="text/css">
	.st0{fill:#FFFFFF;}
	.st1{fill:url(#SVGID_1_);}
</style>
<path class="st0" d="M52.4,71.2v8.5H24.8c-2.7,0-5.3-0.5-7.6-1.6c-3.4-1.5-6.2-4-7.9-7c-1.2-2.1-1.8-4.3-1.8-6.7V31.9h9.7v33.4
	c0.5,3,3.2,5.4,6.6,5.8L52.4,71.2z"/>
<path class="st0" d="M60.1,79.7V31.9h11.2v47.8H60.1z"/>
<path class="st0" d="M142.4,64.5c0,8.4-8.9,15.2-19.9,15.2H79.9V31.9h39.4c9.3,0,16.9,5.8,16.9,12.9c0,2.6-1,5-2.7,7
	C138.9,54.5,142.4,59.1,142.4,64.5z M91,49.2h28.3c3.1,0,5.7-2,5.7-4.4c0-2.4-2.6-4.4-5.7-4.4H91V49.2z M122.5,71.1
	c4.8,0,8.8-3,8.8-6.7c0-3.7-3.9-6.7-8.8-6.7H91v13.5L122.5,71.1L122.5,71.1z"/>
<path class="st0" d="M200.6,76.6l-2.1,3.1h4.2L200.6,76.6z M202.7,44.9c0-3.5-1.9-6.8-4.9-9.2c-3-2.3-7.2-3.8-11.9-3.8h-39.5v47.8
	h11.2v-22h11.2c4,0,7.5,1.6,9.5,4.1l0.3,0.4l6,9l5.7,8.5h0.2l6.1-9.2l-8.5-13c1.7-0.1,3.3-0.5,4.8-1
	C198.7,54.6,202.7,50.1,202.7,44.9z M188.2,48.8c-0.7,0.3-1.5,0.4-2.3,0.4l-28.3,0.1v-8.8h28.3c2,0,3.3,0.7,4,1.2
	c0.6,0.5,1.7,1.6,1.7,3.1C191.6,46.6,190.3,48.1,188.2,48.8z"/>
<linearGradient id="SVGID_1_" gradientUnits="userSpaceOnUse" x1="197.8993" y1="43.6182" x2="294.9762" y2="43.6182">
	<stop  offset="0" style="stop-color:#F29100"/>
	<stop  offset="1" style="stop-color:#FFD019"/>
</linearGradient>
<path class="st1" d="M286.3,67L246.4,7.2l-4,6.1L206.6,67l-6.6,9.9l-2.1,3.1h19l8.7-13l16.8-25.1l4-6.1L267.2,67l8.7,13h19L286.3,67
	z"/>
</svg>
